<svg xmlns="http://www.w3.org/2000/svg">
  <symbol viewBox="0 0 1024 1024" id="image">
    <path d="M938.666667 553.92V768c0 64.8-52.533333 117.333333-117.333334 117.333333H202.666667c-64.8 0-117.333333-52.533333-117.333334-117.333333V256c0-64.8 52.533333-117.333333 117.333334-117.333333h618.666666c64.8 0 117.333333 52.533333 117.333334 117.333333v297.92z m-64-74.624V256a53.333333 53.333333 0 0 0-53.333334-53.333333H202.666667a53.333333 53.333333 0 0 0-53.333334 53.333333v344.48A290.090667 290.090667 0 0 1 192 597.333333a286.88 286.88 0 0 1 183.296 65.845334C427.029333 528.384 556.906667 437.333333 704 437.333333c65.706667 0 126.997333 16.778667 170.666667 41.962667z m0 82.24c-5.333333-8.32-21.130667-21.653333-43.648-32.917333C796.768 511.488 753.045333 501.333333 704 501.333333c-121.770667 0-229.130667 76.266667-270.432 188.693334-2.730667 7.445333-7.402667 20.32-13.994667 38.581333-7.68 21.301333-34.453333 28.106667-51.370666 13.056-16.437333-14.634667-28.554667-25.066667-36.138667-31.146667A222.890667 222.890667 0 0 0 192 661.333333c-14.464 0-28.725333 1.365333-42.666667 4.053334V768a53.333333 53.333333 0 0 0 53.333334 53.333333h618.666666a53.333333 53.333333 0 0 0 53.333334-53.333333V561.525333zM320 480a96 96 0 1 1 0-192 96 96 0 0 1 0 192z m0-64a32 32 0 1 0 0-64 32 32 0 0 0 0 64z" p-id="3475" fill="#c86a95"></path>
  </symbol>
  <symbol viewBox="0 0 1024 1024" id="delete">
    <path d="M202.666667 256h-42.666667a32 32 0 0 1 0-64h704a32 32 0 0 1 0 64H266.666667v565.333333a53.333333 53.333333 0 0 0 53.333333 53.333334h384a53.333333 53.333333 0 0 0 53.333333-53.333334V352a32 32 0 0 1 64 0v469.333333c0 64.8-52.533333 117.333333-117.333333 117.333334H320c-64.8 0-117.333333-52.533333-117.333333-117.333334V256z m224-106.666667a32 32 0 0 1 0-64h170.666666a32 32 0 0 1 0 64H426.666667z m-32 288a32 32 0 0 1 64 0v256a32 32 0 0 1-64 0V437.333333z m170.666666 0a32 32 0 0 1 64 0v256a32 32 0 0 1-64 0V437.333333z" p-id="3920" fill="#d81e06"></path>
  </symbol>
  <symbol viewBox="0 0 1024 1024" id="edit">
    <path d="M896 864a32 32 0 0 1 0 64H128a32 32 0 0 1 0-64z m-60.16-733.621333l15.093333 15.093333c45.866667 45.834667 45.866667 120.16 0 166.005333L418.794667 743.338667a160.192 160.192 0 0 1-78.122667 42.986666l-152.245333 34.197334c-23.84 5.365333-44.661333-16.853333-37.749334-40.288l43.338667-146.88a160.042667 160.042667 0 0 1 40.373333-67.925334l435.328-435.050666c45.866667-45.834667 120.245333-45.834667 166.112 0zM636.32 254.304L279.68 610.709333a96.021333 96.021333 0 0 0-24.213333 40.746667l-27.946667 94.656 99.093333-22.261333a96.117333 96.117333 0 0 0 46.869334-25.781334L726.933333 344.842667l-90.602666-90.538667z m78.698667-78.656l-33.397334 33.386667 90.602667 90.538666 33.386667-33.376a53.333333 53.333333 0 0 0 0-75.456l-15.093334-15.093333a53.408 53.408 0 0 0-75.498666 0z" p-id="3398" fill="#f9d17c"></path>
  </symbol>
  <symbol viewBox="0 0 1024 1024" id="flow">
    <path d="M768 832a64 64 0 1 1 0.032-128.032A64 64 0 0 1 768 832m-448-64a64 64 0 1 1-128.032-0.032A64 64 0 0 1 320 768m128-512a64 64 0 1 1 128.032 0.032A64 64 0 0 1 448 256m352 388.544V480h-256v-100.544c55.072-14.304 96-64 96-123.456 0-70.592-57.44-128-128-128-70.592 0-128 57.408-128 128 0 59.456 40.928 109.152 96 123.456V480H224V644.544c-55.072 14.304-96 64-96 123.456 0 70.592 57.408 128 128 128 70.56 0 128-57.408 128-128 0-59.456-40.928-109.152-96-123.456V544h448v100.544c-55.072 14.304-96 64-96 123.456 0 70.592 57.408 128 128 128 70.56 0 128-57.408 128-128 0-59.456-40.928-109.152-96-123.456" fill="#e861dc" p-id="5868"></path>
  </symbol>
  <symbol viewBox="0 0 20 20" id="calendar">
    <path d="M16 2H4a2 2 0 00-2 2v12a2 2 0 002 2h12a2 2 0 002-2V4a2 2 0 00-2-2zM3 5.857C3 5.384 3.448 5 4 5h12c.552 0 1 .384 1 .857v10.286c0 .473-.448.857-1 .857H4c-.552 0-1-.384-1-.857V5.857z" />
    <path d="M8.5 9a1 1 0 100-2 1 1 0 000 2zm3 0a1 1 0 100-2 1 1 0 000 2zm3 0a1 1 0 100-2 1 1 0 000 2zm-9 3a1 1 0 100-2 1 1 0 000 2zm3 0a1 1 0 100-2 1 1 0 000 2zm3 0a1 1 0 100-2 1 1 0 000 2zm3 0a1 1 0 100-2 1 1 0 000 2zm-9 3a1 1 0 100-2 1 1 0 000 2zm3 0a1 1 0 100-2 1 1 0 000 2zm3 0a1 1 0 100-2 1 1 0 000 2z" />
  </symbol>
  <symbol viewBox="0 0 1024 1024" id="hate">
    <path d="M413.749333 565.045333a32 32 0 1 0 47.168 43.242667l105.088-114.634667a53.333333 53.333333 0 0 0 2.88-68.672 920.672 920.672 0 0 1-61.44-89.44c-17.077333-28.458667 0.821333-73.226667 37.845334-110.250666 10.901333-10.88 17.045333-16.565333 25.813333-23.210667C597.472 182.048 628.074667 170.666667 667.776 170.666667 793.813333 170.666667 874.666667 272.810667 874.666667 420.213333c0 112.405333-113.525333 251.904-344.298667 413.653334a32 32 0 0 1-36.736 0C262.858667 672.106667 149.333333 532.608 149.333333 420.202667 149.333333 272.810667 230.186667 170.666667 356.213333 170.666667c13.781333 0 26.592 2.026667 38.933334 5.930666a32 32 0 0 0 19.36-60.992A191.093333 191.093333 0 0 0 356.213333 106.666667C191.136 106.666667 85.333333 240.32 85.333333 420.213333 85.333333 559.786667 210.432 713.536 456.906667 886.272a96 96 0 0 0 110.186666 0C813.568 713.536 938.666667 559.786667 938.666667 420.213333 938.666667 240.32 832.864 106.666667 667.786667 106.666667c-54.442667 0-98.378667 16.341333-135.392 44.437333-11.669333 8.864-19.541333 16.128-32.352 28.938667-55.424 55.413333-84.16 127.274667-47.477334 188.416a975.872 975.872 0 0 0 60.213334 88.544L413.76 565.045333z"></path>
  </symbol>
  <symbol viewBox="0 0 1024 1024" id="like">
    <path d="M667.786667 117.333333C832.864 117.333333 938.666667 249.706667 938.666667 427.861333c0 138.250667-125.098667 290.506667-371.573334 461.589334a96.768 96.768 0 0 1-110.186666 0C210.432 718.368 85.333333 566.112 85.333333 427.861333 85.333333 249.706667 191.136 117.333333 356.213333 117.333333c59.616 0 100.053333 20.832 155.786667 68.096C567.744 138.176 608.170667 117.333333 667.786667 117.333333z m0 63.146667c-41.44 0-70.261333 15.189333-116.96 55.04-2.165333 1.845333-14.4 12.373333-17.941334 15.381333a32.32 32.32 0 0 1-41.770666 0c-3.541333-3.018667-15.776-13.536-17.941334-15.381333-46.698667-39.850667-75.52-55.04-116.96-55.04C230.186667 180.48 149.333333 281.258667 149.333333 426.698667 149.333333 537.6 262.858667 675.242667 493.632 834.826667a32.352 32.352 0 0 0 36.736 0C761.141333 675.253333 874.666667 537.6 874.666667 426.698667c0-145.44-80.853333-246.218667-206.88-246.218667z"></path>
  </symbol>
  <symbol viewBox="0 0 1024 1024" id="user">
    <path d="M512 448c-35.296 0-64-28.704-64-64s28.704-64 64-64 64 28.704 64 64-28.704 64-64 64m0-192c-70.592 0-128 57.408-128 128s57.408 128 128 128 128-57.408 128-128-57.408-128-128-128"></path>
    <path d="M768 797.632v-69.92a151.904 151.904 0 0 0-151.712-151.68h-208.576A151.904 151.904 0 0 0 256 727.68v69.92C177.632 727.36 128 625.6 128 512 128 299.904 299.936 128 512 128s384 171.904 384 384c0 113.6-49.632 215.36-128 285.632m-448 46.56v-116.48a87.776 87.776 0 0 1 87.712-87.68h208.576A87.776 87.776 0 0 1 704 727.68v116.48a381.568 381.568 0 0 1-384 0m192-780.16C264.96 64 64 264.96 64 512c0 246.976 200.96 448 448 448s448-201.024 448-448c0-247.04-200.96-448-448-448"></path>
  </symbol>
</svg>